<?xml version="1.0" standalone="no"?>
<!DOCTYPE svg PUBLIC "-//W3C//DTD SVG 20010904//EN"
 "http://www.w3.org/TR/2001/REC-SVG-20010904/DTD/svg10.dtd">
<svg version="1.0" xmlns="http://www.w3.org/2000/svg"
 width="2000.000000pt" height="2000.000000pt" viewBox="0 0 2000.000000 2000.000000"
 preserveAspectRatio="xMidYMid meet">

<g transform="translate(0.000000,2000.000000) scale(0.100000,-0.100000)"
fill="#000000" stroke="none">
<path d="M3251 15605 c-135 -30 -234 -73 -346 -148 -88 -59 -212 -191 -269
-285 -58 -97 -111 -247 -125 -355 -15 -106 -15 -9484 -1 -9609 43 -376 301
-680 675 -795 l90 -27 547 -4 548 -3 2 4236 3 4236 2809 -2046 c1545 -1125
2812 -2045 2816 -2045 4 0 1271 920 2816 2045 l2809 2046 3 -4236 2 -4236 553
3 c539 4 554 4 626 27 331 100 569 341 659 669 l27 97 3 4790 c2 5269 7 4867
-58 5048 -113 310 -397 545 -725 598 -102 16 -287 6 -390 -21 -104 -27 -240
-94 -340 -168 -1155 -844 -5979 -4352 -5985 -4352 -4 0 -1358 982 -3007 2183
-1649 1200 -3020 2198 -3046 2216 -68 47 -179 96 -272 121 -105 29 -330 37
-424 15z"/>
</g>
</svg>
